<mxfile host="app.diagrams.net" modified="2023-04-01T20:10:42.513Z" agent="Mozilla/5.0 (Windows NT 10.0; Win64; x64) AppleWebKit/537.36 (KHTML, like Gecko) Chrome/111.0.0.0 Safari/537.36" etag="I57FfTN_3DFsBOgnob4v" version="21.1.2" type="device">
  <diagram name="PÃ¡gina-1" id="Q6ndbUm_F5zBva0wAqnM">
    <mxGraphModel dx="1195" dy="630" grid="1" gridSize="10" guides="1" tooltips="1" connect="1" arrows="1" fold="1" page="1" pageScale="1" pageWidth="827" pageHeight="1169" math="0" shadow="0">
      <root>
        <mxCell id="0" />
        <mxCell id="1" parent="0" />
        <mxCell id="YXeBb5Av1j93fLu0N-7X-5" style="rounded=0;orthogonalLoop=1;jettySize=auto;html=1;entryX=0.588;entryY=0;entryDx=0;entryDy=0;entryPerimeter=0;" edge="1" parent="1" source="YXeBb5Av1j93fLu0N-7X-1" target="YXeBb5Av1j93fLu0N-7X-2">
          <mxGeometry relative="1" as="geometry" />
        </mxCell>
        <mxCell id="YXeBb5Av1j93fLu0N-7X-6" style="rounded=0;orthogonalLoop=1;jettySize=auto;html=1;entryX=0.5;entryY=0;entryDx=0;entryDy=0;" edge="1" parent="1" source="YXeBb5Av1j93fLu0N-7X-1" target="YXeBb5Av1j93fLu0N-7X-3">
          <mxGeometry relative="1" as="geometry" />
        </mxCell>
        <mxCell id="YXeBb5Av1j93fLu0N-7X-1" value="hudson" style="rounded=1;whiteSpace=wrap;html=1;fontFamily=Helvetica;fontSize=16;" vertex="1" parent="1">
          <mxGeometry x="320" y="90" width="160" height="60" as="geometry" />
        </mxCell>
        <mxCell id="YXeBb5Av1j93fLu0N-7X-2" value="ApplicationLogin" style="rounded=1;whiteSpace=wrap;html=1;fontFamily=Helvetica;fontSize=16;fillColor=#f5f5f5;strokeColor=#666666;fontColor=#333333;" vertex="1" parent="1">
          <mxGeometry x="160" y="210" width="160" height="60" as="geometry" />
        </mxCell>
        <mxCell id="YXeBb5Av1j93fLu0N-7X-14" style="rounded=0;orthogonalLoop=1;jettySize=auto;html=1;entryX=0.5;entryY=0;entryDx=0;entryDy=0;" edge="1" parent="1" source="YXeBb5Av1j93fLu0N-7X-3" target="YXeBb5Av1j93fLu0N-7X-7">
          <mxGeometry relative="1" as="geometry" />
        </mxCell>
        <mxCell id="YXeBb5Av1j93fLu0N-7X-15" style="rounded=0;orthogonalLoop=1;jettySize=auto;html=1;entryX=0.5;entryY=0;entryDx=0;entryDy=0;" edge="1" parent="1" source="YXeBb5Av1j93fLu0N-7X-3" target="YXeBb5Av1j93fLu0N-7X-8">
          <mxGeometry relative="1" as="geometry" />
        </mxCell>
        <mxCell id="YXeBb5Av1j93fLu0N-7X-16" style="rounded=0;orthogonalLoop=1;jettySize=auto;html=1;entryX=0.5;entryY=0;entryDx=0;entryDy=0;" edge="1" parent="1" source="YXeBb5Av1j93fLu0N-7X-3" target="YXeBb5Av1j93fLu0N-7X-9">
          <mxGeometry relative="1" as="geometry" />
        </mxCell>
        <mxCell id="YXeBb5Av1j93fLu0N-7X-3" value="Home" style="rounded=1;whiteSpace=wrap;html=1;fontFamily=Helvetica;fontSize=16;fillColor=#f5f5f5;strokeColor=#666666;fontColor=#333333;" vertex="1" parent="1">
          <mxGeometry x="520" y="210" width="160" height="60" as="geometry" />
        </mxCell>
        <mxCell id="YXeBb5Av1j93fLu0N-7X-12" style="rounded=0;orthogonalLoop=1;jettySize=auto;html=1;entryX=0.5;entryY=0;entryDx=0;entryDy=0;" edge="1" parent="1" source="YXeBb5Av1j93fLu0N-7X-7" target="YXeBb5Av1j93fLu0N-7X-10">
          <mxGeometry relative="1" as="geometry" />
        </mxCell>
        <mxCell id="YXeBb5Av1j93fLu0N-7X-13" style="rounded=0;orthogonalLoop=1;jettySize=auto;html=1;entryX=0.5;entryY=0;entryDx=0;entryDy=0;" edge="1" parent="1" source="YXeBb5Av1j93fLu0N-7X-7" target="YXeBb5Av1j93fLu0N-7X-11">
          <mxGeometry relative="1" as="geometry" />
        </mxCell>
        <mxCell id="YXeBb5Av1j93fLu0N-7X-7" value="FinanceesResume" style="rounded=1;whiteSpace=wrap;html=1;fontFamily=Helvetica;fontSize=16;fillColor=#dae8fc;strokeColor=#6c8ebf;" vertex="1" parent="1">
          <mxGeometry x="220" y="330" width="160" height="60" as="geometry" />
        </mxCell>
        <mxCell id="YXeBb5Av1j93fLu0N-7X-19" value="" style="edgeStyle=orthogonalEdgeStyle;rounded=0;orthogonalLoop=1;jettySize=auto;html=1;fillColor=#fff2cc;strokeColor=#000000;" edge="1" parent="1" source="YXeBb5Av1j93fLu0N-7X-8" target="YXeBb5Av1j93fLu0N-7X-18">
          <mxGeometry relative="1" as="geometry" />
        </mxCell>
        <mxCell id="YXeBb5Av1j93fLu0N-7X-8" value="TransactionHistory" style="rounded=1;whiteSpace=wrap;html=1;fontFamily=Helvetica;fontSize=16;fillColor=#fff2cc;strokeColor=#d6b656;" vertex="1" parent="1">
          <mxGeometry x="520" y="330" width="160" height="60" as="geometry" />
        </mxCell>
        <mxCell id="YXeBb5Av1j93fLu0N-7X-9" value="TransactionRegistry" style="rounded=1;whiteSpace=wrap;html=1;fontFamily=Helvetica;fontSize=16;fillColor=#f8cecc;strokeColor=#b85450;" vertex="1" parent="1">
          <mxGeometry x="820" y="330" width="160" height="60" as="geometry" />
        </mxCell>
        <mxCell id="YXeBb5Av1j93fLu0N-7X-10" value="AccountManagement" style="rounded=1;whiteSpace=wrap;html=1;fontFamily=Helvetica;fontSize=16;fillColor=#dae8fc;strokeColor=#6c8ebf;" vertex="1" parent="1">
          <mxGeometry x="130" y="450" width="160" height="60" as="geometry" />
        </mxCell>
        <mxCell id="YXeBb5Av1j93fLu0N-7X-21" value="" style="edgeStyle=orthogonalEdgeStyle;rounded=0;orthogonalLoop=1;jettySize=auto;html=1;fillColor=#dae8fc;strokeColor=#000000;" edge="1" parent="1" source="YXeBb5Av1j93fLu0N-7X-11" target="YXeBb5Av1j93fLu0N-7X-20">
          <mxGeometry relative="1" as="geometry" />
        </mxCell>
        <mxCell id="YXeBb5Av1j93fLu0N-7X-11" value="CardManagement" style="rounded=1;whiteSpace=wrap;html=1;fontFamily=Helvetica;fontSize=16;fillColor=#dae8fc;strokeColor=#6c8ebf;" vertex="1" parent="1">
          <mxGeometry x="310" y="450" width="160" height="60" as="geometry" />
        </mxCell>
        <mxCell id="YXeBb5Av1j93fLu0N-7X-18" value="TransactionDetails" style="whiteSpace=wrap;html=1;fontSize=16;rounded=1;fillColor=#fff2cc;strokeColor=#d6b656;" vertex="1" parent="1">
          <mxGeometry x="520" y="450" width="160" height="60" as="geometry" />
        </mxCell>
        <mxCell id="YXeBb5Av1j93fLu0N-7X-20" value="CardBillingList" style="whiteSpace=wrap;html=1;fontSize=16;rounded=1;fillColor=#dae8fc;strokeColor=#6c8ebf;" vertex="1" parent="1">
          <mxGeometry x="310" y="570" width="160" height="60" as="geometry" />
        </mxCell>
      </root>
    </mxGraphModel>
  </diagram>
</mxfile>
